<svg xmlns="http://www.w3.org/2000/svg" width="992" height="128" class="svgbob"><style>.svgbob line, .svgbob path, .svgbob circle, .svgbob rect, .svgbob polygon {
    stroke: black;
    stroke-width: 2;
    stroke-opacity: 1;
    fill-opacity: 1;
    stroke-linecap: round;
    stroke-linejoin: miter;
}
.svgbob text {
    white-space: pre;
    fill: black;
    font-family: Iosevka Fixed, monospace;
    font-size: 14px;
}
.svgbob rect.backdrop {
    stroke: none;
    fill: white;
}
.svgbob .broken {
    stroke-dasharray: 8;
}
.svgbob .filled {
    fill: black;
}
.svgbob .bg_filled {
    fill: white;
    stroke-width: 1;
}
.svgbob .nofill {
    fill: white;
}
.svgbob .end_marked_arrow {
    marker-end: url(#arrow);
}
.svgbob .start_marked_arrow {
    marker-start: url(#arrow);
}
.svgbob .end_marked_diamond {
    marker-end: url(#diamond);
}
.svgbob .start_marked_diamond {
    marker-start: url(#diamond);
}
.svgbob .end_marked_circle {
    marker-end: url(#circle);
}
.svgbob .start_marked_circle {
    marker-start: url(#circle);
}
.svgbob .end_marked_open_circle {
    marker-end: url(#open_circle);
}
.svgbob .start_marked_open_circle {
    marker-start: url(#open_circle);
}
.svgbob .end_marked_big_open_circle {
    marker-end: url(#big_open_circle);
}
.svgbob .start_marked_big_open_circle {
    marker-start: url(#big_open_circle);
}<!--separator--></style><defs><marker id="arrow" viewBox="-2 -2 8 8" refX="4" refY="2" markerWidth="7" markerHeight="7" orient="auto-start-reverse"><polygon points="0,0 0,4 4,2 0,0"></polygon></marker><marker id="diamond" viewBox="-2 -2 8 8" refX="4" refY="2" markerWidth="7" markerHeight="7" orient="auto-start-reverse"><polygon points="0,2 2,0 4,2 2,4 0,2"></polygon></marker><marker id="circle" viewBox="0 0 8 8" refX="4" refY="4" markerWidth="7" markerHeight="7" orient="auto-start-reverse"><circle cx="4" cy="4" r="2" class="filled"></circle></marker><marker id="open_circle" viewBox="0 0 8 8" refX="4" refY="4" markerWidth="7" markerHeight="7" orient="auto-start-reverse"><circle cx="4" cy="4" r="2" class="bg_filled"></circle></marker><marker id="big_open_circle" viewBox="0 0 8 8" refX="4" refY="4" markerWidth="7" markerHeight="7" orient="auto-start-reverse"><circle cx="4" cy="4" r="3" class="bg_filled"></circle></marker></defs><rect class="backdrop" x="0" y="0" width="992" height="128"></rect><rect x="0" y="16" width="8" height="16" class="solid filled" rx="0"></rect><rect x="8" y="16" width="8" height="16" class="solid filled" rx="0"></rect><rect x="16" y="16" width="8" height="16" class="solid filled" rx="0"></rect><rect x="24" y="16" width="8" height="16" class="solid filled" rx="0"></rect><rect x="32" y="16" width="8" height="16" class="solid filled" rx="0"></rect><rect x="40" y="16" width="8" height="16" class="solid filled" rx="0"></rect><rect x="48" y="16" width="8" height="16" class="solid filled" rx="0"></rect><rect x="64" y="16" width="8" height="16" class="solid filled" rx="0"></rect><rect x="72" y="16" width="8" height="16" class="solid filled" rx="0"></rect><rect x="80" y="16" width="8" height="16" class="solid filled" rx="0"></rect><rect x="120" y="16" width="8" height="16" class="solid filled" rx="0"></rect><rect x="128" y="16" width="8" height="16" class="solid filled" rx="0"></rect><rect x="144" y="16" width="8" height="16" class="solid filled" rx="0"></rect><rect x="152" y="16" width="8" height="16" class="solid filled" rx="0"></rect><rect x="160" y="16" width="8" height="16" class="solid filled" rx="0"></rect><rect x="168" y="16" width="8" height="16" class="solid filled" rx="0"></rect><rect x="176" y="16" width="8" height="16" class="solid filled" rx="0"></rect><rect x="184" y="16" width="8" height="16" class="solid filled" rx="0"></rect><rect x="208" y="16" width="8" height="16" class="solid filled" rx="0"></rect><rect x="216" y="16" width="8" height="16" class="solid filled" rx="0"></rect><rect x="272" y="16" width="8" height="16" class="solid filled" rx="0"></rect><rect x="280" y="16" width="8" height="16" class="solid filled" rx="0"></rect><rect x="288" y="16" width="8" height="16" class="solid filled" rx="0"></rect><rect x="296" y="16" width="8" height="16" class="solid filled" rx="0"></rect><rect x="304" y="16" width="8" height="16" class="solid filled" rx="0"></rect><rect x="312" y="16" width="8" height="16" class="solid filled" rx="0"></rect><rect x="320" y="16" width="8" height="16" class="solid filled" rx="0"></rect><rect x="336" y="16" width="8" height="16" class="solid filled" rx="0"></rect><rect x="344" y="16" width="8" height="16" class="solid filled" rx="0"></rect><rect x="352" y="16" width="8" height="16" class="solid filled" rx="0"></rect><rect x="360" y="16" width="8" height="16" class="solid filled" rx="0"></rect><rect x="368" y="16" width="8" height="16" class="solid filled" rx="0"></rect><rect x="376" y="16" width="8" height="16" class="solid filled" rx="0"></rect><rect x="384" y="16" width="8" height="16" class="solid filled" rx="0"></rect><rect x="400" y="16" width="8" height="16" class="solid filled" rx="0"></rect><rect x="408" y="16" width="8" height="16" class="solid filled" rx="0"></rect><rect x="416" y="16" width="8" height="16" class="solid filled" rx="0"></rect><rect x="424" y="16" width="8" height="16" class="solid filled" rx="0"></rect><rect x="432" y="16" width="8" height="16" class="solid filled" rx="0"></rect><rect x="440" y="16" width="8" height="16" class="solid filled" rx="0"></rect><rect x="448" y="16" width="8" height="16" class="solid filled" rx="0"></rect><rect x="0" y="32" width="8" height="16" class="solid filled" rx="0"></rect><rect x="8" y="32" width="8" height="16" class="solid filled" rx="0"></rect><rect x="64" y="32" width="8" height="16" class="solid filled" rx="0"></rect><rect x="72" y="32" width="8" height="16" class="solid filled" rx="0"></rect><rect x="80" y="32" width="8" height="16" class="solid filled" rx="0"></rect><rect x="88" y="32" width="8" height="16" class="solid filled" rx="0"></rect><rect x="120" y="32" width="8" height="16" class="solid filled" rx="0"></rect><rect x="128" y="32" width="8" height="16" class="solid filled" rx="0"></rect><rect x="144" y="32" width="8" height="16" class="solid filled" rx="0"></rect><rect x="152" y="32" width="8" height="16" class="solid filled" rx="0"></rect><rect x="184" y="32" width="8" height="16" class="solid filled" rx="0"></rect><rect x="192" y="32" width="8" height="16" class="solid filled" rx="0"></rect><rect x="208" y="32" width="8" height="16" class="solid filled" rx="0"></rect><rect x="216" y="32" width="8" height="16" class="solid filled" rx="0"></rect><rect x="272" y="32" width="8" height="16" class="solid filled" rx="0"></rect><rect x="280" y="32" width="8" height="16" class="solid filled" rx="0"></rect><rect x="336" y="32" width="8" height="16" class="solid filled" rx="0"></rect><rect x="344" y="32" width="8" height="16" class="solid filled" rx="0"></rect><rect x="400" y="32" width="8" height="16" class="solid filled" rx="0"></rect><rect x="408" y="32" width="8" height="16" class="solid filled" rx="0"></rect><rect x="0" y="48" width="8" height="16" class="solid filled" rx="0"></rect><rect x="8" y="48" width="8" height="16" class="solid filled" rx="0"></rect><rect x="16" y="48" width="8" height="16" class="solid filled" rx="0"></rect><rect x="24" y="48" width="8" height="16" class="solid filled" rx="0"></rect><rect x="32" y="48" width="8" height="16" class="solid filled" rx="0"></rect><rect x="64" y="48" width="8" height="16" class="solid filled" rx="0"></rect><rect x="72" y="48" width="8" height="16" class="solid filled" rx="0"></rect><rect x="88" y="48" width="8" height="16" class="solid filled" rx="0"></rect><rect x="96" y="48" width="8" height="16" class="solid filled" rx="0"></rect><rect x="120" y="48" width="8" height="16" class="solid filled" rx="0"></rect><rect x="128" y="48" width="8" height="16" class="solid filled" rx="0"></rect><rect x="144" y="48" width="8" height="16" class="solid filled" rx="0"></rect><rect x="152" y="48" width="8" height="16" class="solid filled" rx="0"></rect><rect x="184" y="48" width="8" height="16" class="solid filled" rx="0"></rect><rect x="192" y="48" width="8" height="16" class="solid filled" rx="0"></rect><rect x="208" y="48" width="8" height="16" class="solid filled" rx="0"></rect><rect x="216" y="48" width="8" height="16" class="solid filled" rx="0"></rect><rect x="272" y="48" width="8" height="16" class="solid filled" rx="0"></rect><rect x="280" y="48" width="8" height="16" class="solid filled" rx="0"></rect><rect x="288" y="48" width="8" height="16" class="solid filled" rx="0"></rect><rect x="296" y="48" width="8" height="16" class="solid filled" rx="0"></rect><rect x="304" y="48" width="8" height="16" class="solid filled" rx="0"></rect><rect x="336" y="48" width="8" height="16" class="solid filled" rx="0"></rect><rect x="344" y="48" width="8" height="16" class="solid filled" rx="0"></rect><rect x="352" y="48" width="8" height="16" class="solid filled" rx="0"></rect><rect x="360" y="48" width="8" height="16" class="solid filled" rx="0"></rect><rect x="368" y="48" width="8" height="16" class="solid filled" rx="0"></rect><rect x="376" y="48" width="8" height="16" class="solid filled" rx="0"></rect><rect x="384" y="48" width="8" height="16" class="solid filled" rx="0"></rect><rect x="400" y="48" width="8" height="16" class="solid filled" rx="0"></rect><rect x="408" y="48" width="8" height="16" class="solid filled" rx="0"></rect><rect x="416" y="48" width="8" height="16" class="solid filled" rx="0"></rect><rect x="424" y="48" width="8" height="16" class="solid filled" rx="0"></rect><rect x="432" y="48" width="8" height="16" class="solid filled" rx="0"></rect><rect x="440" y="48" width="8" height="16" class="solid filled" rx="0"></rect><rect x="448" y="48" width="8" height="16" class="solid filled" rx="0"></rect><rect x="0" y="64" width="8" height="16" class="solid filled" rx="0"></rect><rect x="8" y="64" width="8" height="16" class="solid filled" rx="0"></rect><rect x="64" y="64" width="8" height="16" class="solid filled" rx="0"></rect><rect x="72" y="64" width="8" height="16" class="solid filled" rx="0"></rect><rect x="96" y="64" width="8" height="16" class="solid filled" rx="0"></rect><rect x="104" y="64" width="8" height="16" class="solid filled" rx="0"></rect><rect x="120" y="64" width="8" height="16" class="solid filled" rx="0"></rect><rect x="128" y="64" width="8" height="16" class="solid filled" rx="0"></rect><rect x="144" y="64" width="8" height="16" class="solid filled" rx="0"></rect><rect x="152" y="64" width="8" height="16" class="solid filled" rx="0"></rect><rect x="184" y="64" width="8" height="16" class="solid filled" rx="0"></rect><rect x="192" y="64" width="8" height="16" class="solid filled" rx="0"></rect><rect x="208" y="64" width="8" height="16" class="solid filled" rx="0"></rect><rect x="216" y="64" width="8" height="16" class="solid filled" rx="0"></rect><rect x="272" y="64" width="8" height="16" class="solid filled" rx="0"></rect><rect x="280" y="64" width="8" height="16" class="solid filled" rx="0"></rect><rect x="376" y="64" width="8" height="16" class="solid filled" rx="0"></rect><rect x="384" y="64" width="8" height="16" class="solid filled" rx="0"></rect><rect x="440" y="64" width="8" height="16" class="solid filled" rx="0"></rect><rect x="448" y="64" width="8" height="16" class="solid filled" rx="0"></rect><rect x="0" y="80" width="8" height="16" class="solid filled" rx="0"></rect><rect x="8" y="80" width="8" height="16" class="solid filled" rx="0"></rect><rect x="16" y="80" width="8" height="16" class="solid filled" rx="0"></rect><rect x="24" y="80" width="8" height="16" class="solid filled" rx="0"></rect><rect x="32" y="80" width="8" height="16" class="solid filled" rx="0"></rect><rect x="40" y="80" width="8" height="16" class="solid filled" rx="0"></rect><rect x="48" y="80" width="8" height="16" class="solid filled" rx="0"></rect><rect x="64" y="80" width="8" height="16" class="solid filled" rx="0"></rect><rect x="72" y="80" width="8" height="16" class="solid filled" rx="0"></rect><rect x="104" y="80" width="8" height="16" class="solid filled" rx="0"></rect><rect x="112" y="80" width="8" height="16" class="solid filled" rx="0"></rect><rect x="120" y="80" width="8" height="16" class="solid filled" rx="0"></rect><rect x="128" y="80" width="8" height="16" class="solid filled" rx="0"></rect><rect x="144" y="80" width="8" height="16" class="solid filled" rx="0"></rect><rect x="152" y="80" width="8" height="16" class="solid filled" rx="0"></rect><rect x="160" y="80" width="8" height="16" class="solid filled" rx="0"></rect><rect x="168" y="80" width="8" height="16" class="solid filled" rx="0"></rect><rect x="176" y="80" width="8" height="16" class="solid filled" rx="0"></rect><rect x="184" y="80" width="8" height="16" class="solid filled" rx="0"></rect><rect x="208" y="80" width="8" height="16" class="solid filled" rx="0"></rect><rect x="216" y="80" width="8" height="16" class="solid filled" rx="0"></rect><rect x="224" y="80" width="8" height="16" class="solid filled" rx="0"></rect><rect x="232" y="80" width="8" height="16" class="solid filled" rx="0"></rect><rect x="240" y="80" width="8" height="16" class="solid filled" rx="0"></rect><rect x="248" y="80" width="8" height="16" class="solid filled" rx="0"></rect><rect x="256" y="80" width="8" height="16" class="solid filled" rx="0"></rect><rect x="272" y="80" width="8" height="16" class="solid filled" rx="0"></rect><rect x="280" y="80" width="8" height="16" class="solid filled" rx="0"></rect><rect x="288" y="80" width="8" height="16" class="solid filled" rx="0"></rect><rect x="296" y="80" width="8" height="16" class="solid filled" rx="0"></rect><rect x="304" y="80" width="8" height="16" class="solid filled" rx="0"></rect><rect x="312" y="80" width="8" height="16" class="solid filled" rx="0"></rect><rect x="320" y="80" width="8" height="16" class="solid filled" rx="0"></rect><rect x="336" y="80" width="8" height="16" class="solid filled" rx="0"></rect><rect x="344" y="80" width="8" height="16" class="solid filled" rx="0"></rect><rect x="352" y="80" width="8" height="16" class="solid filled" rx="0"></rect><rect x="360" y="80" width="8" height="16" class="solid filled" rx="0"></rect><rect x="368" y="80" width="8" height="16" class="solid filled" rx="0"></rect><rect x="376" y="80" width="8" height="16" class="solid filled" rx="0"></rect><rect x="384" y="80" width="8" height="16" class="solid filled" rx="0"></rect><rect x="400" y="80" width="8" height="16" class="solid filled" rx="0"></rect><rect x="408" y="80" width="8" height="16" class="solid filled" rx="0"></rect><rect x="416" y="80" width="8" height="16" class="solid filled" rx="0"></rect><rect x="424" y="80" width="8" height="16" class="solid filled" rx="0"></rect><rect x="432" y="80" width="8" height="16" class="solid filled" rx="0"></rect><rect x="440" y="80" width="8" height="16" class="solid filled" rx="0"></rect><rect x="448" y="80" width="8" height="16" class="solid filled" rx="0"></rect><rect x="504" y="16" width="8" height="16" class="solid filled" rx="0"></rect><rect x="512" y="16" width="8" height="16" class="solid filled" rx="0"></rect><rect x="520" y="16" width="8" height="16" class="solid filled" rx="0"></rect><rect x="528" y="16" width="8" height="16" class="solid filled" rx="0"></rect><rect x="536" y="16" width="8" height="16" class="solid filled" rx="0"></rect><rect x="560" y="16" width="8" height="16" class="solid filled" rx="0"></rect><rect x="568" y="16" width="8" height="16" class="solid filled" rx="0"></rect><rect x="576" y="16" width="8" height="16" class="solid filled" rx="0"></rect><rect x="584" y="16" width="8" height="16" class="solid filled" rx="0"></rect><rect x="592" y="16" width="8" height="16" class="solid filled" rx="0"></rect><rect x="600" y="16" width="8" height="16" class="solid filled" rx="0"></rect><rect x="624" y="16" width="8" height="16" class="solid filled" rx="0"></rect><rect x="632" y="16" width="8" height="16" class="solid filled" rx="0"></rect><rect x="640" y="16" width="8" height="16" class="solid filled" rx="0"></rect><rect x="648" y="16" width="8" height="16" class="solid filled" rx="0"></rect><rect x="656" y="16" width="8" height="16" class="solid filled" rx="0"></rect><rect x="664" y="16" width="8" height="16" class="solid filled" rx="0"></rect><rect x="688" y="16" width="8" height="16" class="solid filled" rx="0"></rect><rect x="696" y="16" width="8" height="16" class="solid filled" rx="0"></rect><rect x="704" y="16" width="8" height="16" class="solid filled" rx="0"></rect><rect x="712" y="16" width="8" height="16" class="solid filled" rx="0"></rect><rect x="720" y="16" width="8" height="16" class="solid filled" rx="0"></rect><rect x="728" y="16" width="8" height="16" class="solid filled" rx="0"></rect><rect x="736" y="16" width="8" height="16" class="solid filled" rx="0"></rect><rect x="752" y="16" width="8" height="16" class="solid filled" rx="0"></rect><rect x="760" y="16" width="8" height="16" class="solid filled" rx="0"></rect><rect x="768" y="16" width="8" height="16" class="solid filled" rx="0"></rect><rect x="776" y="16" width="8" height="16" class="solid filled" rx="0"></rect><rect x="784" y="16" width="8" height="16" class="solid filled" rx="0"></rect><rect x="792" y="16" width="8" height="16" class="solid filled" rx="0"></rect><rect x="800" y="16" width="8" height="16" class="solid filled" rx="0"></rect><rect x="808" y="16" width="8" height="16" class="solid filled" rx="0"></rect><rect x="824" y="16" width="8" height="16" class="solid filled" rx="0"></rect><rect x="832" y="16" width="8" height="16" class="solid filled" rx="0"></rect><rect x="848" y="16" width="8" height="16" class="solid filled" rx="0"></rect><rect x="856" y="16" width="8" height="16" class="solid filled" rx="0"></rect><rect x="864" y="16" width="8" height="16" class="solid filled" rx="0"></rect><rect x="872" y="16" width="8" height="16" class="solid filled" rx="0"></rect><rect x="880" y="16" width="8" height="16" class="solid filled" rx="0"></rect><rect x="888" y="16" width="8" height="16" class="solid filled" rx="0"></rect><rect x="896" y="16" width="8" height="16" class="solid filled" rx="0"></rect><rect x="904" y="16" width="8" height="16" class="solid filled" rx="0"></rect><rect x="920" y="16" width="8" height="16" class="solid filled" rx="0"></rect><rect x="928" y="16" width="8" height="16" class="solid filled" rx="0"></rect><rect x="936" y="16" width="8" height="16" class="solid filled" rx="0"></rect><rect x="944" y="16" width="8" height="16" class="solid filled" rx="0"></rect><rect x="952" y="16" width="8" height="16" class="solid filled" rx="0"></rect><rect x="960" y="16" width="8" height="16" class="solid filled" rx="0"></rect><rect x="968" y="16" width="8" height="16" class="solid filled" rx="0"></rect><rect x="496" y="32" width="8" height="16" class="solid filled" rx="0"></rect><rect x="504" y="32" width="8" height="16" class="solid filled" rx="0"></rect><rect x="536" y="32" width="8" height="16" class="solid filled" rx="0"></rect><rect x="544" y="32" width="8" height="16" class="solid filled" rx="0"></rect><rect x="560" y="32" width="8" height="16" class="solid filled" rx="0"></rect><rect x="568" y="32" width="8" height="16" class="solid filled" rx="0"></rect><rect x="600" y="32" width="8" height="16" class="solid filled" rx="0"></rect><rect x="608" y="32" width="8" height="16" class="solid filled" rx="0"></rect><rect x="624" y="32" width="8" height="16" class="solid filled" rx="0"></rect><rect x="632" y="32" width="8" height="16" class="solid filled" rx="0"></rect><rect x="664" y="32" width="8" height="16" class="solid filled" rx="0"></rect><rect x="672" y="32" width="8" height="16" class="solid filled" rx="0"></rect><rect x="688" y="32" width="8" height="16" class="solid filled" rx="0"></rect><rect x="696" y="32" width="8" height="16" class="solid filled" rx="0"></rect><rect x="776" y="32" width="8" height="16" class="solid filled" rx="0"></rect><rect x="784" y="32" width="8" height="16" class="solid filled" rx="0"></rect><rect x="824" y="32" width="8" height="16" class="solid filled" rx="0"></rect><rect x="832" y="32" width="8" height="16" class="solid filled" rx="0"></rect><rect x="872" y="32" width="8" height="16" class="solid filled" rx="0"></rect><rect x="880" y="32" width="8" height="16" class="solid filled" rx="0"></rect><rect x="920" y="32" width="8" height="16" class="solid filled" rx="0"></rect><rect x="928" y="32" width="8" height="16" class="solid filled" rx="0"></rect><rect x="496" y="48" width="8" height="16" class="solid filled" rx="0"></rect><rect x="504" y="48" width="8" height="16" class="solid filled" rx="0"></rect><rect x="512" y="48" width="8" height="16" class="solid filled" rx="0"></rect><rect x="520" y="48" width="8" height="16" class="solid filled" rx="0"></rect><rect x="528" y="48" width="8" height="16" class="solid filled" rx="0"></rect><rect x="536" y="48" width="8" height="16" class="solid filled" rx="0"></rect><rect x="544" y="48" width="8" height="16" class="solid filled" rx="0"></rect><rect x="560" y="48" width="8" height="16" class="solid filled" rx="0"></rect><rect x="568" y="48" width="8" height="16" class="solid filled" rx="0"></rect><rect x="576" y="48" width="8" height="16" class="solid filled" rx="0"></rect><rect x="584" y="48" width="8" height="16" class="solid filled" rx="0"></rect><rect x="592" y="48" width="8" height="16" class="solid filled" rx="0"></rect><rect x="600" y="48" width="8" height="16" class="solid filled" rx="0"></rect><rect x="624" y="48" width="8" height="16" class="solid filled" rx="0"></rect><rect x="632" y="48" width="8" height="16" class="solid filled" rx="0"></rect><rect x="640" y="48" width="8" height="16" class="solid filled" rx="0"></rect><rect x="648" y="48" width="8" height="16" class="solid filled" rx="0"></rect><rect x="656" y="48" width="8" height="16" class="solid filled" rx="0"></rect><rect x="664" y="48" width="8" height="16" class="solid filled" rx="0"></rect><rect x="688" y="48" width="8" height="16" class="solid filled" rx="0"></rect><rect x="696" y="48" width="8" height="16" class="solid filled" rx="0"></rect><rect x="704" y="48" width="8" height="16" class="solid filled" rx="0"></rect><rect x="712" y="48" width="8" height="16" class="solid filled" rx="0"></rect><rect x="720" y="48" width="8" height="16" class="solid filled" rx="0"></rect><rect x="776" y="48" width="8" height="16" class="solid filled" rx="0"></rect><rect x="784" y="48" width="8" height="16" class="solid filled" rx="0"></rect><rect x="824" y="48" width="8" height="16" class="solid filled" rx="0"></rect><rect x="832" y="48" width="8" height="16" class="solid filled" rx="0"></rect><rect x="872" y="48" width="8" height="16" class="solid filled" rx="0"></rect><rect x="880" y="48" width="8" height="16" class="solid filled" rx="0"></rect><rect x="920" y="48" width="8" height="16" class="solid filled" rx="0"></rect><rect x="928" y="48" width="8" height="16" class="solid filled" rx="0"></rect><rect x="936" y="48" width="8" height="16" class="solid filled" rx="0"></rect><rect x="944" y="48" width="8" height="16" class="solid filled" rx="0"></rect><rect x="952" y="48" width="8" height="16" class="solid filled" rx="0"></rect><rect x="496" y="64" width="8" height="16" class="solid filled" rx="0"></rect><rect x="504" y="64" width="8" height="16" class="solid filled" rx="0"></rect><rect x="536" y="64" width="8" height="16" class="solid filled" rx="0"></rect><rect x="544" y="64" width="8" height="16" class="solid filled" rx="0"></rect><rect x="560" y="64" width="8" height="16" class="solid filled" rx="0"></rect><rect x="568" y="64" width="8" height="16" class="solid filled" rx="0"></rect><rect x="624" y="64" width="8" height="16" class="solid filled" rx="0"></rect><rect x="632" y="64" width="8" height="16" class="solid filled" rx="0"></rect><rect x="688" y="64" width="8" height="16" class="solid filled" rx="0"></rect><rect x="696" y="64" width="8" height="16" class="solid filled" rx="0"></rect><rect x="776" y="64" width="8" height="16" class="solid filled" rx="0"></rect><rect x="784" y="64" width="8" height="16" class="solid filled" rx="0"></rect><rect x="824" y="64" width="8" height="16" class="solid filled" rx="0"></rect><rect x="832" y="64" width="8" height="16" class="solid filled" rx="0"></rect><rect x="872" y="64" width="8" height="16" class="solid filled" rx="0"></rect><rect x="880" y="64" width="8" height="16" class="solid filled" rx="0"></rect><rect x="920" y="64" width="8" height="16" class="solid filled" rx="0"></rect><rect x="928" y="64" width="8" height="16" class="solid filled" rx="0"></rect><rect x="496" y="80" width="8" height="16" class="solid filled" rx="0"></rect><rect x="504" y="80" width="8" height="16" class="solid filled" rx="0"></rect><rect x="536" y="80" width="8" height="16" class="solid filled" rx="0"></rect><rect x="544" y="80" width="8" height="16" class="solid filled" rx="0"></rect><rect x="560" y="80" width="8" height="16" class="solid filled" rx="0"></rect><rect x="568" y="80" width="8" height="16" class="solid filled" rx="0"></rect><rect x="624" y="80" width="8" height="16" class="solid filled" rx="0"></rect><rect x="632" y="80" width="8" height="16" class="solid filled" rx="0"></rect><rect x="688" y="80" width="8" height="16" class="solid filled" rx="0"></rect><rect x="696" y="80" width="8" height="16" class="solid filled" rx="0"></rect><rect x="704" y="80" width="8" height="16" class="solid filled" rx="0"></rect><rect x="712" y="80" width="8" height="16" class="solid filled" rx="0"></rect><rect x="720" y="80" width="8" height="16" class="solid filled" rx="0"></rect><rect x="728" y="80" width="8" height="16" class="solid filled" rx="0"></rect><rect x="736" y="80" width="8" height="16" class="solid filled" rx="0"></rect><rect x="776" y="80" width="8" height="16" class="solid filled" rx="0"></rect><rect x="784" y="80" width="8" height="16" class="solid filled" rx="0"></rect><rect x="824" y="80" width="8" height="16" class="solid filled" rx="0"></rect><rect x="832" y="80" width="8" height="16" class="solid filled" rx="0"></rect><rect x="872" y="80" width="8" height="16" class="solid filled" rx="0"></rect><rect x="880" y="80" width="8" height="16" class="solid filled" rx="0"></rect><rect x="920" y="80" width="8" height="16" class="solid filled" rx="0"></rect><rect x="928" y="80" width="8" height="16" class="solid filled" rx="0"></rect><rect x="936" y="80" width="8" height="16" class="solid filled" rx="0"></rect><rect x="944" y="80" width="8" height="16" class="solid filled" rx="0"></rect><rect x="952" y="80" width="8" height="16" class="solid filled" rx="0"></rect><rect x="960" y="80" width="8" height="16" class="solid filled" rx="0"></rect><rect x="968" y="80" width="8" height="16" class="solid filled" rx="0"></rect><g><line x1="56" y1="24" x2="62" y2="24" class="solid"></line><line x1="62" y1="24" x2="62" y2="44" class="solid"></line><line x1="22" y1="44" x2="62" y2="44" class="solid"></line><line x1="22" y1="44" x2="22" y2="48" class="solid"></line></g><g><line x1="56" y1="28" x2="58" y2="28" class="solid"></line><line x1="58" y1="28" x2="58" y2="40" class="solid"></line><line x1="18" y1="40" x2="58" y2="40" class="solid"></line><line x1="18" y1="40" x2="18" y2="48" class="solid"></line></g><g><line x1="88" y1="24" x2="94" y2="24" class="solid"></line><line x1="94" y1="24" x2="94" y2="32" class="solid"></line></g><g><line x1="88" y1="28" x2="90" y2="28" class="solid"></line><line x1="90" y1="28" x2="90" y2="32" class="solid"></line></g><g><line x1="136" y1="24" x2="142" y2="24" class="solid"></line><line x1="142" y1="24" x2="142" y2="108" class="solid"></line><line x1="106" y1="96" x2="106" y2="108" class="solid"></line><line x1="106" y1="108" x2="142" y2="108" class="solid"></line></g><g><line x1="136" y1="28" x2="138" y2="28" class="solid"></line><line x1="138" y1="28" x2="138" y2="104" class="solid"></line><line x1="110" y1="96" x2="110" y2="104" class="solid"></line><line x1="110" y1="104" x2="138" y2="104" class="solid"></line></g><g><line x1="192" y1="24" x2="198" y2="24" class="solid"></line><line x1="198" y1="24" x2="198" y2="32" class="solid"></line></g><g><line x1="192" y1="28" x2="194" y2="28" class="solid"></line><line x1="194" y1="28" x2="194" y2="32" class="solid"></line></g><g><line x1="224" y1="24" x2="230" y2="24" class="solid"></line><line x1="230" y1="24" x2="230" y2="80" class="solid"></line></g><g><line x1="224" y1="28" x2="226" y2="28" class="solid"></line><line x1="226" y1="28" x2="226" y2="80" class="solid"></line></g><g><line x1="328" y1="24" x2="334" y2="24" class="solid"></line><line x1="334" y1="24" x2="334" y2="44" class="solid"></line><line x1="294" y1="44" x2="334" y2="44" class="solid"></line><line x1="294" y1="44" x2="294" y2="48" class="solid"></line></g><g><line x1="328" y1="28" x2="330" y2="28" class="solid"></line><line x1="330" y1="28" x2="330" y2="40" class="solid"></line><line x1="290" y1="40" x2="330" y2="40" class="solid"></line><line x1="290" y1="40" x2="290" y2="48" class="solid"></line></g><g><line x1="392" y1="24" x2="398" y2="24" class="solid"></line><line x1="398" y1="24" x2="398" y2="44" class="solid"></line><line x1="358" y1="44" x2="398" y2="44" class="solid"></line><line x1="358" y1="44" x2="358" y2="48" class="solid"></line></g><g><line x1="392" y1="28" x2="394" y2="28" class="solid"></line><line x1="394" y1="28" x2="394" y2="40" class="solid"></line><line x1="354" y1="40" x2="394" y2="40" class="solid"></line><line x1="354" y1="40" x2="354" y2="48" class="solid"></line></g><g><line x1="456" y1="24" x2="462" y2="24" class="solid"></line><line x1="462" y1="24" x2="462" y2="44" class="solid"></line><line x1="422" y1="44" x2="462" y2="44" class="solid"></line><line x1="422" y1="44" x2="422" y2="48" class="solid"></line></g><g><line x1="456" y1="28" x2="458" y2="28" class="solid"></line><line x1="458" y1="28" x2="458" y2="40" class="solid"></line><line x1="418" y1="40" x2="458" y2="40" class="solid"></line><line x1="418" y1="40" x2="418" y2="48" class="solid"></line></g><g><line x1="96" y1="40" x2="102" y2="40" class="solid"></line><line x1="102" y1="40" x2="102" y2="48" class="solid"></line></g><g><line x1="96" y1="44" x2="98" y2="44" class="solid"></line><line x1="98" y1="44" x2="98" y2="48" class="solid"></line></g><g><line x1="162" y1="40" x2="184" y2="40" class="solid"></line><line x1="162" y1="40" x2="162" y2="80" class="solid"></line></g><g><line x1="166" y1="44" x2="184" y2="44" class="solid"></line><line x1="166" y1="44" x2="166" y2="80" class="solid"></line></g><g><line x1="200" y1="40" x2="206" y2="40" class="solid"></line><line x1="206" y1="40" x2="206" y2="92" class="solid"></line><line x1="198" y1="92" x2="206" y2="92" class="solid"></line><line x1="198" y1="92" x2="198" y2="108" class="solid"></line><line x1="146" y1="96" x2="146" y2="108" class="solid"></line><line x1="146" y1="108" x2="198" y2="108" class="solid"></line></g><g><line x1="200" y1="44" x2="202" y2="44" class="solid"></line><line x1="202" y1="44" x2="202" y2="88" class="solid"></line><line x1="194" y1="88" x2="202" y2="88" class="solid"></line><line x1="194" y1="88" x2="194" y2="104" class="solid"></line><line x1="150" y1="96" x2="150" y2="104" class="solid"></line><line x1="150" y1="104" x2="194" y2="104" class="solid"></line></g><g><line x1="40" y1="56" x2="46" y2="56" class="solid"></line><line x1="46" y1="56" x2="46" y2="76" class="solid"></line><line x1="22" y1="76" x2="46" y2="76" class="solid"></line><line x1="22" y1="76" x2="22" y2="80" class="solid"></line></g><g><line x1="40" y1="60" x2="42" y2="60" class="solid"></line><line x1="42" y1="60" x2="42" y2="72" class="solid"></line><line x1="18" y1="72" x2="42" y2="72" class="solid"></line><line x1="18" y1="72" x2="18" y2="80" class="solid"></line></g><g><line x1="82" y1="56" x2="88" y2="56" class="solid"></line><line x1="82" y1="56" x2="82" y2="104" class="solid"></line><line x1="70" y1="96" x2="70" y2="104" class="solid"></line><line x1="70" y1="104" x2="82" y2="104" class="solid"></line></g><g><line x1="86" y1="60" x2="88" y2="60" class="solid"></line><line x1="86" y1="60" x2="86" y2="108" class="solid"></line><line x1="66" y1="96" x2="66" y2="108" class="solid"></line><line x1="66" y1="108" x2="86" y2="108" class="solid"></line></g><g><line x1="104" y1="56" x2="110" y2="56" class="solid"></line><line x1="110" y1="56" x2="110" y2="64" class="solid"></line></g><g><line x1="104" y1="60" x2="106" y2="60" class="solid"></line><line x1="106" y1="60" x2="106" y2="64" class="solid"></line></g><g><line x1="312" y1="56" x2="318" y2="56" class="solid"></line><line x1="318" y1="56" x2="318" y2="76" class="solid"></line><line x1="294" y1="76" x2="318" y2="76" class="solid"></line><line x1="294" y1="76" x2="294" y2="80" class="solid"></line></g><g><line x1="312" y1="60" x2="314" y2="60" class="solid"></line><line x1="314" y1="60" x2="314" y2="72" class="solid"></line><line x1="290" y1="72" x2="314" y2="72" class="solid"></line><line x1="290" y1="72" x2="290" y2="80" class="solid"></line></g><g><line x1="392" y1="56" x2="398" y2="56" class="solid"></line><line x1="398" y1="56" x2="398" y2="108" class="solid"></line><line x1="338" y1="96" x2="338" y2="108" class="solid"></line><line x1="338" y1="108" x2="398" y2="108" class="solid"></line></g><g><line x1="392" y1="60" x2="394" y2="60" class="solid"></line><line x1="394" y1="60" x2="394" y2="104" class="solid"></line><line x1="342" y1="96" x2="342" y2="104" class="solid"></line><line x1="342" y1="104" x2="394" y2="104" class="solid"></line></g><g><line x1="456" y1="56" x2="462" y2="56" class="solid"></line><line x1="462" y1="56" x2="462" y2="108" class="solid"></line><line x1="402" y1="96" x2="402" y2="108" class="solid"></line><line x1="402" y1="108" x2="462" y2="108" class="solid"></line></g><g><line x1="456" y1="60" x2="458" y2="60" class="solid"></line><line x1="458" y1="60" x2="458" y2="104" class="solid"></line><line x1="406" y1="96" x2="406" y2="104" class="solid"></line><line x1="406" y1="104" x2="458" y2="104" class="solid"></line></g><g><line x1="90" y1="64" x2="90" y2="76" class="solid"></line><line x1="90" y1="76" x2="96" y2="76" class="solid"></line></g><g><line x1="94" y1="64" x2="94" y2="72" class="solid"></line><line x1="94" y1="72" x2="96" y2="72" class="solid"></line></g><g><line x1="112" y1="72" x2="118" y2="72" class="solid"></line><line x1="118" y1="72" x2="118" y2="80" class="solid"></line></g><g><line x1="112" y1="76" x2="114" y2="76" class="solid"></line><line x1="114" y1="76" x2="114" y2="80" class="solid"></line></g><g><line x1="338" y1="64" x2="338" y2="76" class="solid"></line><line x1="338" y1="76" x2="376" y2="76" class="solid"></line></g><g><line x1="342" y1="64" x2="342" y2="72" class="solid"></line><line x1="342" y1="72" x2="376" y2="72" class="solid"></line></g><g><line x1="402" y1="64" x2="402" y2="76" class="solid"></line><line x1="402" y1="76" x2="440" y2="76" class="solid"></line></g><g><line x1="406" y1="64" x2="406" y2="72" class="solid"></line><line x1="406" y1="72" x2="440" y2="72" class="solid"></line></g><g><line x1="56" y1="88" x2="62" y2="88" class="solid"></line><line x1="62" y1="88" x2="62" y2="108" class="solid"></line><line x1="2" y1="96" x2="2" y2="108" class="solid"></line><line x1="2" y1="108" x2="62" y2="108" class="solid"></line></g><g><line x1="56" y1="92" x2="58" y2="92" class="solid"></line><line x1="58" y1="92" x2="58" y2="104" class="solid"></line><line x1="6" y1="96" x2="6" y2="104" class="solid"></line><line x1="6" y1="104" x2="58" y2="104" class="solid"></line></g><g><line x1="98" y1="80" x2="98" y2="92" class="solid"></line><line x1="98" y1="92" x2="104" y2="92" class="solid"></line></g><g><line x1="102" y1="80" x2="102" y2="88" class="solid"></line><line x1="102" y1="88" x2="104" y2="88" class="solid"></line></g><g><line x1="264" y1="88" x2="270" y2="88" class="solid"></line><line x1="270" y1="88" x2="270" y2="108" class="solid"></line><line x1="210" y1="96" x2="210" y2="108" class="solid"></line><line x1="210" y1="108" x2="270" y2="108" class="solid"></line></g><g><line x1="264" y1="92" x2="266" y2="92" class="solid"></line><line x1="266" y1="92" x2="266" y2="104" class="solid"></line><line x1="214" y1="96" x2="214" y2="104" class="solid"></line><line x1="214" y1="104" x2="266" y2="104" class="solid"></line></g><g><line x1="328" y1="88" x2="334" y2="88" class="solid"></line><line x1="334" y1="88" x2="334" y2="108" class="solid"></line><line x1="274" y1="96" x2="274" y2="108" class="solid"></line><line x1="274" y1="108" x2="334" y2="108" class="solid"></line></g><g><line x1="328" y1="92" x2="330" y2="92" class="solid"></line><line x1="330" y1="92" x2="330" y2="104" class="solid"></line><line x1="278" y1="96" x2="278" y2="104" class="solid"></line><line x1="278" y1="104" x2="330" y2="104" class="solid"></line></g><g><line x1="544" y1="24" x2="550" y2="24" class="solid"></line><line x1="550" y1="24" x2="550" y2="32" class="solid"></line></g><g><line x1="544" y1="28" x2="546" y2="28" class="solid"></line><line x1="546" y1="28" x2="546" y2="32" class="solid"></line></g><g><line x1="608" y1="24" x2="614" y2="24" class="solid"></line><line x1="614" y1="24" x2="614" y2="32" class="solid"></line></g><g><line x1="608" y1="28" x2="610" y2="28" class="solid"></line><line x1="610" y1="28" x2="610" y2="32" class="solid"></line></g><g><line x1="672" y1="24" x2="678" y2="24" class="solid"></line><line x1="678" y1="24" x2="678" y2="32" class="solid"></line></g><g><line x1="672" y1="28" x2="674" y2="28" class="solid"></line><line x1="674" y1="28" x2="674" y2="32" class="solid"></line></g><g><line x1="744" y1="24" x2="750" y2="24" class="solid"></line><line x1="750" y1="24" x2="750" y2="44" class="solid"></line><line x1="710" y1="44" x2="750" y2="44" class="solid"></line><line x1="710" y1="44" x2="710" y2="48" class="solid"></line></g><g><line x1="744" y1="28" x2="746" y2="28" class="solid"></line><line x1="746" y1="28" x2="746" y2="40" class="solid"></line><line x1="706" y1="40" x2="746" y2="40" class="solid"></line><line x1="706" y1="40" x2="706" y2="48" class="solid"></line></g><g><line x1="816" y1="24" x2="822" y2="24" class="solid"></line><line x1="822" y1="24" x2="822" y2="44" class="solid"></line><line x1="798" y1="44" x2="822" y2="44" class="solid"></line><line x1="798" y1="44" x2="798" y2="108" class="solid"></line><line x1="778" y1="96" x2="778" y2="108" class="solid"></line><line x1="778" y1="108" x2="798" y2="108" class="solid"></line></g><g><line x1="816" y1="28" x2="818" y2="28" class="solid"></line><line x1="818" y1="28" x2="818" y2="40" class="solid"></line><line x1="794" y1="40" x2="818" y2="40" class="solid"></line><line x1="794" y1="40" x2="794" y2="104" class="solid"></line><line x1="782" y1="96" x2="782" y2="104" class="solid"></line><line x1="782" y1="104" x2="794" y2="104" class="solid"></line></g><g><line x1="840" y1="24" x2="846" y2="24" class="solid"></line><line x1="846" y1="24" x2="846" y2="108" class="solid"></line><line x1="826" y1="96" x2="826" y2="108" class="solid"></line><line x1="826" y1="108" x2="846" y2="108" class="solid"></line></g><g><line x1="840" y1="28" x2="842" y2="28" class="solid"></line><line x1="842" y1="28" x2="842" y2="104" class="solid"></line><line x1="830" y1="96" x2="830" y2="104" class="solid"></line><line x1="830" y1="104" x2="842" y2="104" class="solid"></line></g><g><line x1="912" y1="24" x2="918" y2="24" class="solid"></line><line x1="918" y1="24" x2="918" y2="44" class="solid"></line><line x1="894" y1="44" x2="918" y2="44" class="solid"></line><line x1="894" y1="44" x2="894" y2="108" class="solid"></line><line x1="874" y1="96" x2="874" y2="108" class="solid"></line><line x1="874" y1="108" x2="894" y2="108" class="solid"></line></g><g><line x1="912" y1="28" x2="914" y2="28" class="solid"></line><line x1="914" y1="28" x2="914" y2="40" class="solid"></line><line x1="890" y1="40" x2="914" y2="40" class="solid"></line><line x1="890" y1="40" x2="890" y2="104" class="solid"></line><line x1="878" y1="96" x2="878" y2="104" class="solid"></line><line x1="878" y1="104" x2="890" y2="104" class="solid"></line></g><g><line x1="976" y1="24" x2="982" y2="24" class="solid"></line><line x1="982" y1="24" x2="982" y2="44" class="solid"></line><line x1="942" y1="44" x2="982" y2="44" class="solid"></line><line x1="942" y1="44" x2="942" y2="48" class="solid"></line></g><g><line x1="976" y1="28" x2="978" y2="28" class="solid"></line><line x1="978" y1="28" x2="978" y2="40" class="solid"></line><line x1="938" y1="40" x2="978" y2="40" class="solid"></line><line x1="938" y1="40" x2="938" y2="48" class="solid"></line></g><g><line x1="514" y1="40" x2="536" y2="40" class="solid"></line><line x1="514" y1="40" x2="514" y2="48" class="solid"></line></g><g><line x1="518" y1="44" x2="536" y2="44" class="solid"></line><line x1="518" y1="44" x2="518" y2="48" class="solid"></line></g><g><line x1="552" y1="40" x2="558" y2="40" class="solid"></line><line x1="558" y1="40" x2="558" y2="108" class="solid"></line><line x1="538" y1="96" x2="538" y2="108" class="solid"></line><line x1="538" y1="108" x2="558" y2="108" class="solid"></line></g><g><line x1="552" y1="44" x2="554" y2="44" class="solid"></line><line x1="554" y1="44" x2="554" y2="104" class="solid"></line><line x1="542" y1="96" x2="542" y2="104" class="solid"></line><line x1="542" y1="104" x2="554" y2="104" class="solid"></line></g><g><line x1="578" y1="40" x2="600" y2="40" class="solid"></line><line x1="578" y1="40" x2="578" y2="48" class="solid"></line></g><g><line x1="582" y1="44" x2="600" y2="44" class="solid"></line><line x1="582" y1="44" x2="582" y2="48" class="solid"></line></g><g><line x1="616" y1="40" x2="622" y2="40" class="solid"></line><line x1="622" y1="40" x2="622" y2="60" class="solid"></line><line x1="614" y1="60" x2="622" y2="60" class="solid"></line><line x1="614" y1="60" x2="614" y2="76" class="solid"></line><line x1="582" y1="76" x2="614" y2="76" class="solid"></line><line x1="582" y1="76" x2="582" y2="108" class="solid"></line><line x1="562" y1="96" x2="562" y2="108" class="solid"></line><line x1="562" y1="108" x2="582" y2="108" class="solid"></line></g><g><line x1="616" y1="44" x2="618" y2="44" class="solid"></line><line x1="618" y1="44" x2="618" y2="56" class="solid"></line><line x1="610" y1="56" x2="618" y2="56" class="solid"></line><line x1="610" y1="56" x2="610" y2="72" class="solid"></line><line x1="578" y1="72" x2="610" y2="72" class="solid"></line><line x1="578" y1="72" x2="578" y2="104" class="solid"></line><line x1="566" y1="96" x2="566" y2="104" class="solid"></line><line x1="566" y1="104" x2="578" y2="104" class="solid"></line></g><g><line x1="642" y1="40" x2="664" y2="40" class="solid"></line><line x1="642" y1="40" x2="642" y2="48" class="solid"></line></g><g><line x1="646" y1="44" x2="664" y2="44" class="solid"></line><line x1="646" y1="44" x2="646" y2="48" class="solid"></line></g><g><line x1="680" y1="40" x2="686" y2="40" class="solid"></line><line x1="686" y1="40" x2="686" y2="60" class="solid"></line><line x1="678" y1="60" x2="686" y2="60" class="solid"></line><line x1="678" y1="60" x2="678" y2="76" class="solid"></line><line x1="646" y1="76" x2="678" y2="76" class="solid"></line><line x1="646" y1="76" x2="646" y2="108" class="solid"></line><line x1="626" y1="96" x2="626" y2="108" class="solid"></line><line x1="626" y1="108" x2="646" y2="108" class="solid"></line></g><g><line x1="680" y1="44" x2="682" y2="44" class="solid"></line><line x1="682" y1="44" x2="682" y2="56" class="solid"></line><line x1="674" y1="56" x2="682" y2="56" class="solid"></line><line x1="674" y1="56" x2="674" y2="72" class="solid"></line><line x1="642" y1="72" x2="674" y2="72" class="solid"></line><line x1="642" y1="72" x2="642" y2="104" class="solid"></line><line x1="630" y1="96" x2="630" y2="104" class="solid"></line><line x1="630" y1="104" x2="642" y2="104" class="solid"></line></g><g><line x1="754" y1="32" x2="754" y2="44" class="solid"></line><line x1="754" y1="44" x2="776" y2="44" class="solid"></line></g><g><line x1="758" y1="32" x2="758" y2="40" class="solid"></line><line x1="758" y1="40" x2="776" y2="40" class="solid"></line></g><g><line x1="850" y1="32" x2="850" y2="44" class="solid"></line><line x1="850" y1="44" x2="872" y2="44" class="solid"></line></g><g><line x1="854" y1="32" x2="854" y2="40" class="solid"></line><line x1="854" y1="40" x2="872" y2="40" class="solid"></line></g><g><line x1="728" y1="56" x2="734" y2="56" class="solid"></line><line x1="734" y1="56" x2="734" y2="76" class="solid"></line><line x1="710" y1="76" x2="734" y2="76" class="solid"></line><line x1="710" y1="76" x2="710" y2="80" class="solid"></line></g><g><line x1="728" y1="60" x2="730" y2="60" class="solid"></line><line x1="730" y1="60" x2="730" y2="72" class="solid"></line><line x1="706" y1="72" x2="730" y2="72" class="solid"></line><line x1="706" y1="72" x2="706" y2="80" class="solid"></line></g><g><line x1="960" y1="56" x2="966" y2="56" class="solid"></line><line x1="966" y1="56" x2="966" y2="76" class="solid"></line><line x1="942" y1="76" x2="966" y2="76" class="solid"></line><line x1="942" y1="76" x2="942" y2="80" class="solid"></line></g><g><line x1="960" y1="60" x2="962" y2="60" class="solid"></line><line x1="962" y1="60" x2="962" y2="72" class="solid"></line><line x1="938" y1="72" x2="962" y2="72" class="solid"></line><line x1="938" y1="72" x2="938" y2="80" class="solid"></line></g><g><line x1="514" y1="72" x2="536" y2="72" class="solid"></line><line x1="514" y1="72" x2="514" y2="104" class="solid"></line><line x1="502" y1="96" x2="502" y2="104" class="solid"></line><line x1="502" y1="104" x2="514" y2="104" class="solid"></line></g><g><line x1="518" y1="76" x2="536" y2="76" class="solid"></line><line x1="518" y1="76" x2="518" y2="108" class="solid"></line><line x1="498" y1="96" x2="498" y2="108" class="solid"></line><line x1="498" y1="108" x2="518" y2="108" class="solid"></line></g><g><line x1="744" y1="88" x2="750" y2="88" class="solid"></line><line x1="750" y1="88" x2="750" y2="108" class="solid"></line><line x1="690" y1="96" x2="690" y2="108" class="solid"></line><line x1="690" y1="108" x2="750" y2="108" class="solid"></line></g><g><line x1="744" y1="92" x2="746" y2="92" class="solid"></line><line x1="746" y1="92" x2="746" y2="104" class="solid"></line><line x1="694" y1="96" x2="694" y2="104" class="solid"></line><line x1="694" y1="104" x2="746" y2="104" class="solid"></line></g><g><line x1="976" y1="88" x2="982" y2="88" class="solid"></line><line x1="982" y1="88" x2="982" y2="108" class="solid"></line><line x1="922" y1="96" x2="922" y2="108" class="solid"></line><line x1="922" y1="108" x2="982" y2="108" class="solid"></line></g><g><line x1="976" y1="92" x2="978" y2="92" class="solid"></line><line x1="978" y1="92" x2="978" y2="104" class="solid"></line><line x1="926" y1="96" x2="926" y2="104" class="solid"></line><line x1="926" y1="104" x2="978" y2="104" class="solid"></line></g></svg>